# xmcd CD database file
#
# Track frame offsets:
#	150
#	24565
#	54935
#
# Disc length: 4440 seconds
#
# Revision: 0
# Processed by: cddbd v1.5.1PL0 Copyright (c) Steve Scherf et al.
# Submitted via: CDex 1.51
#
DISCID=1a115603
DTITLE=持田香織 produced by 井上陽水 - いつのまにか少女は
DYEAR=2004
DGENRE=JPop
TTITLE0=いつのまにか少女は
TTITLE1=ミステリー あなたに夢中
TTITLE2=でーた
EXTD=YEAR: 2004
EXTT0=
EXTT1=
EXTT2=
PLAYORDER=
